<?xml version="1.0" standalone="no"?><!DOCTYPE svg PUBLIC "-//W3C//DTD SVG 1.1//EN" "http://www.w3.org/Graphics/SVG/1.1/DTD/svg11.dtd"><svg t="1504170760041" class="icon" style="" viewBox="0 0 1024 1024" version="1.1" xmlns="http://www.w3.org/2000/svg" p-id="14161" xmlns:xlink="http://www.w3.org/1999/xlink" width="32" height="32"><defs><style type="text/css"></style></defs><path d="M529.576 32.38c41.494 0 76.683 14.909 105.569 44.742 38.694 39.15 58.028 94.627 58.028 166.406 0 47.54-8.293 98.709-24.832 153.497-16.553 54.782-38.588 103.613-66.095 146.484-31.243 48.496-56.404 72.717-75.506 72.717-18.655 0-44.981-30.997-79.012-93.007-25.163-45.678-45.104-94.623-59.778-146.837-14.677-52.205-22.032-99.997-22.032-143.356 0-53.126 11.882-97.651 35.666-133.541 29.369-44.742 72.025-67.137 127.97-67.137zM533.073 693.152c40.543 0 75.276 15.168 104.192 45.439 28.898 29.833 43.364 64.793 43.364 104.902 0 41.494-14.916 77.257-44.742 107.33-29.833 30.055-65.509 45.094-106.993 45.094-40.543 0-75.289-13.74-104.192-41.241-31.243-29.827-46.833-66.653-46.833-110.469 0-40.543 13.74-74.832 41.241-102.803 30.777-32.151 68.759-48.247 113.981-48.247z" p-id="14162" fill="#ffffff"></path></svg>