<?xml version="1.0" standalone="no"?><!DOCTYPE svg PUBLIC "-//W3C//DTD SVG 1.1//EN" "http://www.w3.org/Graphics/SVG/1.1/DTD/svg11.dtd"><svg t="1504056940542" class="icon" style="" viewBox="0 0 1024 1024" version="1.1" xmlns="http://www.w3.org/2000/svg" p-id="31853" xmlns:xlink="http://www.w3.org/1999/xlink" width="32" height="32"><defs><style type="text/css"></style></defs><path d="M634.7017102608696 635.242016c-119.61790956521739-6.616074782608695-233.94167791304346 12.195318260869564-343.33008521739134 59.18162399999999-110.16683165217391 47.3205255652174-199.7945728695652 120.389928-270.79351513043474 217.47837182608697 1.4073579130434783-8.49219547826087 2.721816-17.001475826086956 4.248766956521739-25.471248 1.5344253913043477-8.512483826086957 3.0955460869565217-17.02923860869565 4.964192347826087-25.47231547826087 23.084720347826085-104.27152069565217 60.14050643478261-202.9798142608696 117.98951791304349-293.21620069565216 59.307624000000004-92.51293147826087 135.54624939130434-166.6074187826087 235.76227304347825-214.13189426086956 64.79183373913044-30.72588104347826 133.28144973913044-47.021542956521735 204.68508730434783-51.552208695652176 15.12855860869565-0.9599499130434783 30.289152-1.4340521739130436 46.0381012173913-2.160154434782609 0-73.64067339130435 0-147.0517700869565 0-220.4628667826087 0.9225777391304347-0.7154243478260869 1.8451544347826085-1.4297812173913043 2.7677321739130436-2.1452055652173914C766.2447846956521 207.53668556521745 895.4547220869565 337.7845227826087 1024.4222699130432 467.7867659130435 894.581264 597.4099405217391 764.813936 726.9583697391304 634.7017102608696 856.8527652173912 634.7017102608696 783.4801092173914 634.7017102608696 709.918452173913 634.7017102608696 635.242016z" fill="#FFFFFF" p-id="31854"></path></svg>